<?xml version="1.0" standalone="no"?><!DOCTYPE svg PUBLIC "-//W3C//DTD SVG 1.1//EN" "http://www.w3.org/Graphics/SVG/1.1/DTD/svg11.dtd"><svg t="1717054781479" class="icon" viewBox="0 0 1024 1024" version="1.1" xmlns="http://www.w3.org/2000/svg" p-id="4391" xmlns:xlink="http://www.w3.org/1999/xlink" width="200" height="200"><path d="M832 213.333333h-426.666667a21.333333 21.333333 0 0 1 0-42.666666h426.666667a21.333333 21.333333 0 0 1 0 42.666666M277.333333 213.333333h-85.333333a21.333333 21.333333 0 0 1 0-42.666666h85.333333a21.333333 21.333333 0 0 1 0 42.666666M832 533.333333h-426.666667a21.333333 21.333333 0 0 1 0-42.666666h426.666667a21.333333 21.333333 0 0 1 0 42.666666M277.333333 533.333333h-85.333333a21.333333 21.333333 0 0 1 0-42.666666h85.333333a21.333333 21.333333 0 0 1 0 42.666666M832 853.333333h-426.666667a21.333333 21.333333 0 0 1 0-42.666666h426.666667a21.333333 21.333333 0 0 1 0 42.666666M277.333333 853.333333h-85.333333a21.333333 21.333333 0 0 1 0-42.666666h85.333333a21.333333 21.333333 0 0 1 0 42.666666" fill="#3C405D" p-id="4392"></path></svg>